# Blender v2.79 (sub 0) OBJ File: ''
# www.blender.org
mtllib lp.mtl
o lp_Cube.001
v -0.212128 -1.425291 1.000000
v -0.212128 1.425291 1.000000
v -0.212128 -1.425291 -1.000000
v -0.212128 1.425291 -1.000000
v 0.212128 -1.425291 1.000000
v 0.212128 1.425291 1.000000
v 0.212128 -1.425291 -1.000000
v 0.212128 1.425291 -1.000000
v -0.212128 -0.475097 1.000000
v -0.212128 0.475097 1.000000
v -0.212128 0.475097 -1.000000
v -0.212128 -0.475097 -1.000000
v 0.388241 0.475097 -1.000000
v 0.388241 -0.475097 -1.000000
v 0.388241 0.475097 1.000000
v 0.388241 -0.475097 1.000000
vt 0.882161 0.500448
vt 0.776146 0.737887
vt 0.732138 0.500448
vt 0.882161 0.263009
vt 0.776146 0.025570
vt 0.882161 0.025570
vt 0.732138 0.263009
vt 0.882161 0.737887
vt 0.517765 0.746263
vt 0.017995 0.504780
vt 0.517765 0.504780
vt 0.517765 0.267341
vt 0.017995 0.025858
vt 0.517765 0.025858
vt 0.017995 0.267341
vt 0.017995 0.746263
vt 0.654534 0.737887
vt 0.548518 0.500448
vt 0.698542 0.500448
vt 0.654534 0.025570
vt 0.548518 0.263009
vt 0.548518 0.025570
vt 0.698542 0.263009
vt 0.548518 0.737887
vt 0.517765 0.875263
vt 0.017995 0.769248
vt 0.517765 0.769248
vt 0.017995 0.875263
vt 0.517765 0.996038
vt 0.017995 0.890023
vt 0.517765 0.890023
vt 0.017995 0.996038
vn 0.0000 0.0000 -1.0000
vn 0.9833 0.1822 0.0000
vn 0.9958 0.0915 0.0000
vn 0.9958 -0.0915 0.0000
vn 0.9833 -0.1822 0.0000
vn 0.0000 0.0000 1.0000
vn 0.0000 -1.0000 0.0000
vn 0.0000 1.0000 0.0000
usemtl None
s 1
f 11/1/1 8/2/1 13/3/1
f 12/4/1 7/5/1 3/6/1
f 11/1/1 14/7/1 12/4/1
f 11/1/1 4/8/1 8/2/1
f 12/4/1 14/7/1 7/5/1
f 11/1/1 13/3/1 14/7/1
s 2
f 8/9/2 15/10/3 13/11/3
f 14/12/4 5/13/5 7/14/5
f 13/11/3 16/15/4 14/12/4
f 8/9/2 6/16/2 15/10/3
f 14/12/4 16/15/4 5/13/5
f 13/11/3 15/10/3 16/15/4
s 3
f 6/17/6 10/18/6 15/19/6
f 5/20/6 9/21/6 1/22/6
f 15/19/6 9/21/6 16/23/6
f 6/17/6 2/24/6 10/18/6
f 5/20/6 16/23/6 9/21/6
f 15/19/6 10/18/6 9/21/6
s 4
f 7/25/7 1/26/7 3/27/7
f 7/25/7 5/28/7 1/26/7
s 5
f 4/29/8 6/30/8 8/31/8
f 4/29/8 2/32/8 6/30/8
